<?xml version="1.0" encoding="UTF-8" standalone="no"?>
<!DOCTYPE svg PUBLIC "-//W3C//DTD SVG 1.1//EN" "http://www.w3.org/Graphics/SVG/1.1/DTD/svg11.dtd">
<svg width="100%" height="100%" viewBox="0 0 618 163" version="1.1" xmlns="http://www.w3.org/2000/svg" xmlns:xlink="http://www.w3.org/1999/xlink" xml:space="preserve"  style="fill-rule:evenodd;clip-rule:evenodd;stroke-linejoin:round;stroke-miterlimit:2;">
    <g transform="matrix(1,0,0,1,-1490.78,-858.939)">
        <rect x="0" y="0" width="3507.87" height="2480.32"/>
        <g transform="matrix(6.12323e-17,1,-1,6.12323e-17,1572.03,940.189)">
            <g transform="matrix(1,0,0,1,-81.25,-81.25)">
                <clipPath id="_clip1">
                    <rect x="0" y="0" width="162.5" height="162.5"/>
                </clipPath>
                <g clip-path="url(#_clip1)">
                    <g transform="matrix(4.16667,0,0,4.16667,0,0)">
                        <path d="M30.21,0.001C34.492,-0.065 38.021,3.394 38.086,7.72C38.151,12.046 34.727,15.612 30.446,15.678C30.446,15.678 20.593,15.828 19.056,15.828C17.103,15.828 15.518,17.43 15.518,19.403C15.518,21.376 17.103,22.978 19.056,22.978C20.662,22.978 30.544,23.063 30.544,23.063C34.826,23.1 38.273,26.643 38.236,30.969C38.199,35.296 34.693,38.778 30.411,38.741C30.411,38.741 20.643,38.656 19.056,38.656C8.539,38.656 -0,30.029 -0,19.403C-0,8.777 8.539,0.15 19.056,0.15C20.562,0.15 30.21,0.001 30.21,0.001Z" style="fill:white;"/>
                    </g>
                </g>
            </g>
        </g>
        <g transform="matrix(1,0,0,1,1931.02,940.189)">
            <g transform="matrix(1,0,0,1,-81.25,-81.25)">
                <clipPath id="_clip2">
                    <rect x="0" y="0" width="162.5" height="162.5"/>
                </clipPath>
                <g clip-path="url(#_clip2)">
                    <g transform="matrix(4.16667,0,0,4.16667,0,0)">
                        <path d="M38.74,30.21C38.806,34.492 35.347,38.021 31.021,38.086C26.695,38.151 23.129,34.727 23.064,30.446C23.064,30.446 22.913,20.593 22.913,19.056C22.913,17.103 21.311,15.518 19.339,15.518C17.366,15.518 15.764,17.103 15.764,19.056C15.764,20.662 15.678,30.544 15.678,30.544C15.641,34.826 12.098,38.273 7.772,38.236C3.445,38.199 -0.037,34.693 0,30.411C0,30.411 0.085,20.643 0.085,19.056C0.085,8.539 8.712,0 19.339,0C29.965,0 38.592,8.539 38.592,19.056C38.592,20.562 38.74,30.21 38.74,30.21Z" style="fill:white;"/>
                    </g>
                </g>
            </g>
        </g>
        <g transform="matrix(1,0,0,1,2026.96,940.189)">
            <g transform="matrix(1,0,0,1,-81.25,-81.25)">
                <clipPath id="_clip3">
                    <rect x="0" y="0" width="162.5" height="162.5"/>
                </clipPath>
                <g clip-path="url(#_clip3)">
                    <g transform="matrix(4.16667,0,0,4.16667,0,0)">
                        <path d="M38.74,30.21C38.806,34.492 35.347,38.021 31.021,38.086C26.695,38.151 23.129,34.727 23.064,30.446C23.064,30.446 22.913,20.593 22.913,19.056C22.913,17.103 21.311,15.518 19.339,15.518C17.366,15.518 15.764,17.103 15.764,19.056C15.764,20.662 15.678,30.544 15.678,30.544C15.641,34.826 12.098,38.273 7.772,38.236C3.445,38.199 -0.037,34.693 0,30.411C0,30.411 0.085,20.643 0.085,19.056C0.085,8.539 8.712,0 19.339,0C29.965,0 38.592,8.539 38.592,19.056C38.592,20.562 38.74,30.21 38.74,30.21Z" style="fill:white;"/>
                    </g>
                </g>
            </g>
        </g>
        <g transform="matrix(1,0,0,1,1753.94,940.189)">
            <g transform="matrix(1,0,0,1,-81.25,-81.25)">
                <g transform="matrix(4.16667,0,0,4.16667,0,0)">
                    <path d="M19.253,0C29.879,0 38.506,8.539 38.506,19.056C38.506,29.573 29.879,38.112 19.253,38.112C8.627,38.112 0,29.573 0,19.056C0,8.539 8.627,0 19.253,0ZM19.253,15.518C17.28,15.518 15.679,17.103 15.679,19.056C15.679,21.009 17.28,22.594 19.253,22.594C21.226,22.594 22.828,21.009 22.828,19.056C22.828,17.103 21.226,15.518 19.253,15.518Z" style="fill:white;"/>
                </g>
            </g>
        </g>
    </g>
</svg>
